<svg width="688" height="624" xmlns="http://www.w3.org/2000/svg">
 <mask height="490" width="648" y="64" x="20" maskUnits="userSpaceOnUse" id="mask0_0_1548">
  <path id="svg_1" fill="#98C3E8" d="m606.962,76.9443c-140.572,-62.0753 -196.92,120.5347 -291.821,153.0797c-94.447,46.315 -188.023,-1.94 -243.7769,43.392c-88.3766,71.856 -45.5033,191.801 13.6421,241.07c84.8178,70.653 231.3358,40.058 381.3838,-43.393c187.99,-104.554 263.83,-339.719 140.572,-394.1487z"/>
 </mask>
 <defs>
  <filter color-interpolation-filters="sRGB" filterUnits="userSpaceOnUse" height="188" width="188" y="84" x="403" id="filter0_d_0_1548">
   <feGaussianBlur stdDeviation="25"/>
  </filter>
  <filter color-interpolation-filters="sRGB" filterUnits="userSpaceOnUse" height="60.6441" width="71.1387" y="0.756439" x="396.139" id="filter1_d_0_1548">
   <feGaussianBlur stdDeviation="7.5"/>
  </filter>
  <filter color-interpolation-filters="sRGB" filterUnits="userSpaceOnUse" height="60.6441" width="71.1387" y="78.0114" x="570" id="filter2_d_0_1548">
   <feGaussianBlur stdDeviation="7.5"/>
  </filter>
  <filter color-interpolation-filters="sRGB" filterUnits="userSpaceOnUse" height="60.6441" width="71.1387" y="78.0114" x="350" id="filter3_d_0_1548">
   <feGaussianBlur stdDeviation="7.5"/>
  </filter>
  <filter color-interpolation-filters="sRGB" filterUnits="userSpaceOnUse" height="60.6441" width="71.1387" y="0.756439" x="524" id="filter4_d_0_1548">
   <feGaussianBlur stdDeviation="7.5"/>
  </filter>
  <clipPath id="clip0_0_1548">
   <rect id="svg_2" x="415" y="16.7568" fill="white" height="18.0012" width="24"/>
  </clipPath>
  <clipPath id="clip1_0_1548">
   <rect id="svg_3" x="369" y="94.011803" fill="white" height="18.0012" width="24"/>
  </clipPath>
  <clipPath id="clip2_0_1548">
   <rect id="svg_4" x="296" y="295" fill="white" height="48" width="48"/>
  </clipPath>
  <linearGradient y2="0.946837" x2="0.153223" y1="0.256653" x1="1.149235" id="paint1_linear_0_1548">
   <stop stop-color="#FFF8E1"/>
   <stop stop-color="#FFCC80" offset="1"/>
  </linearGradient>
  <linearGradient y2="1" x2="0.5" y1="0.000006" x1="0.5" id="paint2_linear_0_1548">
   <stop stop-color="#AF6CED"/>
   <stop stop-color="#5E199D" offset="1"/>
  </linearGradient>
  <linearGradient y2="1" x2="0.5" y1="0" x1="0.5" id="paint3_linear_0_1548">
   <stop stop-color="#EB5757"/>
   <stop stop-color="#872727" offset="1"/>
  </linearGradient>
  <linearGradient y2="0.6025" x2="-0.058873" y1="0.256636" x1="1.149278" id="paint4_linear_0_1548">
   <stop stop-color="#FFF8E1"/>
   <stop stop-color="#FFCC80" offset="1"/>
  </linearGradient>
  <linearGradient y2="2.029917" x2="0.820225" y1="0.256667" x1="1.149239" id="paint5_linear_0_1548">
   <stop stop-color="#FFF8E1"/>
   <stop stop-color="#FFCC80" offset="1"/>
  </linearGradient>
 </defs>
 <g>
  <title>background</title>
  <rect fill="none" id="canvas_background" height="402" width="582" y="-1" x="-1"/>
 </g>
 <g>
  <title>Layer 1</title>
  <path id="svg_5" fill="#98C3E8" d="m624.607,75.4102c-144.775,-68.89271 -208.638,119.4988 -308.469,150.4958c-99.744,45.347 -195.923,-7.73 -255.3097,37.768c-94.1347,72.12 -52.81791,198.289 7.4454,251.376c86.4203,76.13 239.9983,48.73 398.7383,-33.588c198.882,-103.133 284.538,-345.645 157.595,-406.0518z" opacity="0.4"/>
  <path id="svg_6" fill="#98C3E8" d="m235.5,173.5c5,12.5 -10,32 -31.5,38.5c-18.5002,5.593 -36.5002,5 -41.5002,-8c-4.4231,-11.5 9.5,-24 25.5,-30.5c16.0002,-6.5 42.5002,-12.5 47.5002,0z" opacity="0.2"/>
  <path id="svg_7" fill="#98C3E8" d="m307,125c-3.891,-9.94 9.816,-33.1342 26.802,-38.2014c14.617,-4.3603 28.309,-14.6349 32.198,-4.2986c3.44,9.1437 -7.091,29.825 -19.74,34.915c-12.648,5.09 -35.369,17.525 -39.26,7.585z" opacity="0.2"/>
  <path id="svg_9" fill="#98C3E8" d="m515.573,513.55c-8.095,-19.03 17.706,-61.315 53,-71c30.369,-8.334 79.409,8.71 87.499,28.5c7.157,17.505 -39.719,14.61 -65.998,24.343c-26.279,9.733 -66.407,37.186 -74.501,18.157z" opacity="0.2"/>
  <g id="svg_18" filter="url(#filter0_d_0_1548)">
   <rect id="svg_19" fill="white" rx="10" height="88" width="88" y="140" x="589"/>
  </g>
  <g id="svg_21" filter="url(#filter1_d_0_1548)">
   <path id="svg_22" fill="#56CCF2" d="m440.423,10.7564l-27.431,0c-3.785,0 -6.853,2.2858 -6.853,5.1055l0,20.4332c0,2.8196 3.068,5.1054 6.853,5.1054l27.431,0c3.785,0 6.854,-2.2858 6.854,-5.1054l0,-20.4332c0,-2.8197 -3.069,-5.1055 -6.854,-5.1055z"/>
  </g>
  <g id="svg_23" clip-path="url(#clip0_0_1548)">
   <path id="svg_24" fill="white" d="m437,25.0074l-4.17,0l3.24,-2.4302l-1.41,-1.0651l-4.66,3.4953l-2,0l0,-1.5001l4.66,-3.4953l-1.42,-1.0575l-3.24,2.4301l0,-3.1277l-2,0l0,3.1277l-3.24,-2.4301l-1.42,1.0575l4.66,3.4953l0,1.5001l-2,0l-4.66,-3.4953l-1.41,1.0651l3.24,2.4302l-4.17,0l0,1.5001l4.17,0l-3.24,2.4301l1.41,1.0651l4.66,-3.4952l2,0l0,1.5001l-4.66,3.4952l1.42,1.0576l3.24,-2.4302l0,3.1277l2,0l0,-3.1277l3.24,2.4302l1.42,-1.0576l-4.66,-3.4952l0,-1.5001l2,0l4.66,3.4952l1.41,-1.0651l-3.24,-2.4301l4.17,0l0,-1.5001z"/>
  </g>
  <g id="svg_25" filter="url(#filter2_d_0_1548)">
   <path id="svg_26" fill="#F2C94C" d="m614.284,88.0114l-27.43,0c-3.785,0 -6.854,2.2858 -6.854,5.1054l0,20.4332c0,2.82 3.069,5.106 6.854,5.106l27.43,0c3.786,0 6.854,-2.286 6.854,-5.106l0,-20.4332c0,-2.8196 -3.068,-5.1054 -6.854,-5.1054z"/>
  </g>
  <path id="svg_27" fill="white" d="m610,100.762c0,-3.75 -4,-6.7502 -9,-6.7502c-5,0 -9,3.0002 -9,6.7502c0,2.325 1.6,4.426 4,5.626l0,1.875c0,0.975 0.8,1.8 2,2.1l0,0.15c0,1.275 1.3,2.25 3,2.25c1.7,0 3,-0.975 3,-2.25l0,-0.15c1.2,-0.3 2,-1.125 2,-2.1l0,-1.875c2.4,-1.2 4,-3.301 4,-5.626zm-16,0c0,-2.9249 3.1,-5.2501 7,-5.2501c3.9,0 7,2.3252 7,5.2501c0,2.625 -2.6,4.801 -6,5.176l0,-1.876l1.7,-1.275c0.4,-0.3 0.4,-0.75 0,-1.05c-0.4,-0.3 -1,-0.3 -1.4,0l-1.3,0.975l-1.3,-0.975c-0.4,-0.3 -1,-0.3 -1.4,0c-0.4,0.3 -0.4,0.75 0,1.05l1.7,1.275l0,1.876c-3.4,-0.375 -6,-2.551 -6,-5.176zm7,10.501c-0.6,0 -1,-0.3 -1,-0.75l2,0c0,0.45 -0.4,0.75 -1,0.75zm3,-3c0,0.45 -0.4,0.75 -1,0.75l-4,0c-0.6,0 -1,-0.3 -1,-0.75l0,-1.125c0.9,0.225 1.9,0.375 3,0.375c1.1,0 2.1,-0.15 3,-0.375l0,1.125z"/>
  <g stroke="null" id="svg_28" filter="url(#filter3_d_0_1548)">
   <path stroke="null" id="svg_29" fill="#F58A8A" d="m394.284,88.0114l-27.43,0c-3.785,0 -6.854,2.2858 -6.854,5.1054l0,20.4332c0,2.82 3.069,5.105 6.854,5.105l27.43,0c3.786,0 6.854,-2.285 6.854,-5.105l0,-20.4332c0,-2.8196 -3.068,-5.1054 -6.854,-5.1054z"/>
  </g>
  <g id="svg_32" filter="url(#filter4_d_0_1548)">
   <path id="svg_33" fill="#6FCF97" d="m568.284,10.7564l-27.43,0c-3.785,0 -6.854,2.2858 -6.854,5.1055l0,20.4332c0,2.8196 3.069,5.1054 6.854,5.1054l27.43,0c3.786,0 6.854,-2.2858 6.854,-5.1054l0,-20.4332c0,-2.8197 -3.068,-5.1055 -6.854,-5.1055z"/>
  </g>
  <path id="svg_34" fill="white" d="m560.311,21.9295l-16.332,0l0,7.6556l16.332,0l0,-7.6556z"/>
  <path id="svg_35" fill="white" d="m564.713,23.4529l-3.605,1.1364l0,2.3683l3.605,1.1364l1.307,0l0,-4.6411l-1.307,0z"/>
  <path id="svg_36" fill="url(#paint1_linear_0_1548)" d="m500.39,217c-1.116,4.364 0.397,6.88 1.588,7.5c2.362,1.23 4.999,2.77 4.999,2.77c0,0 16.429,28.144 21.191,30.159c5.556,2.349 18.254,3.571 18.254,3.571l5.556,-11.111c0,0 -12.699,-2.778 -18.254,-3.968c-3.744,-0.803 -20.238,-18.651 -20.238,-18.651l3.174,-5.556l-5.952,0c-4.365,-3.174 -6.731,-9.714 -6.731,-9.714c0,0 -2.824,2.02 -3.587,5z"/>
  <path id="svg_37" fill="url(#paint2_linear_0_1548)" d="m565.478,267.5c-2,-2 -13.5,-5.167 -19,-6.5l5.5,-11c2.166,0 8.5,-0.5 16.5,-2.5c10,-2.5 13.5,-11.5 25,-2c9.2,7.6 25.166,40.833 32,56.5c-10.747,10.243 -17.884,13.569 -32,16.5c-0.834,-1.667 -3.3,-7.3 -6.5,-16.5c-4,-11.5 -16.5,-11.5 -18.5,-15.5c-2,-4 -0.5,-16.5 -3,-19z"/>
  <path id="svg_38" fill="url(#paint3_linear_0_1548)" d="m601.478,381c-3.6,-8 -3.667,-46 -5,-63.5c12.193,-2.397 18.633,-5.484 29,-16c0,0 17,8 16,26.5c-1,18.5 6.52,27.841 11,34c4,5.5 13.5,17.167 18.5,25l-5,9.5c-5.5,-5.833 -21.6,-17.7 -30,-24.5c-8.4,-6.8 -11.167,-23.833 -12.5,-33c-0.834,9.667 -5,27.4 -3,33c2,5.6 23.5,22.5 32,31l-3,8.5c-14.5,-6.833 -44.4,-22.5 -48,-30.5z"/>
  <path id="svg_39" fill="url(#paint4_linear_0_1548)" d="m559.477,233.5c0.4,-1.6 -0.166,-6.333 0.501,-8c4.8,0.8 7.499,4.167 8.499,5.5c1,-0.167 2.435,-0.631 3,0.5c0.5,1 0,3 -1.5,4.5l3.5,9.5c-1.658,1.077 -2.668,1.439 -4.5,2c1,-2.5 0.5,-4.5 0,-5.5c-3.6,2.8 -5,2.667 -6.5,2.5l-1.5,-6.5l-2.499,0.5c0.5,-0.833 0.599,-3.4 0.999,-5z"/>
  <path id="svg_40" fill="#F2994A" d="m568.477,231c-2,-2.8 -6.833,-4.833 -9,-5.5c-4,-3 -2,-9.5 7.5,-12.5c9.5,-3 13.5,5 15.5,7c2,2 3,8.5 12,12.5c9,4 8.5,-1 14,-1c5.5,0 8,3.5 7,6.5c-1,3 -1.5,6.5 4.5,10.5c6,4 0.5,9.5 0,15.5c-0.5,6 -8.5,3 -17,3c-8.5,0 -7,0 -8.5,-5.5c-1.5,-5.5 -4,-7.5 -7,-9c-3,-1.5 -10,-0.5 -11.5,-2c-1.2,-1.2 -4.5,-10.167 -6,-14.5c0.667,-1 1.9,-3.3 1.5,-4.5c-0.4,-1.2 -2.167,-0.833 -3,-0.5z"/>
  <path id="svg_41" fill="url(#paint5_linear_0_1548)" d="m549.478,291.5l24,-1.5c2.8,0.4 7.5,3.833 9.5,5.5c-0.667,1.5 -2.6,4.5 -5,4.5c-2.4,0 -20,-3 -28.5,-4.5l-2,0l0,-7.5l2,3.5z"/>
  <path id="svg_42" fill="#F2C94C" d="m547.478,299l0,-17l-8.5,0l0,17l8.5,0z"/>
  <path id="svg_43" fill="#5A98D0" d="m665.978,425.5c-2.4,-0.4 -12.167,-9.667 -16.5,-14l3,-8.5c2,0.833 6.2,2.3 7,3.5c1,1.5 9.5,19.5 6.5,19z"/>
  <path id="svg_44" fill="#5A98D0" d="m677.978,414.5c-1.2,-2 -8.5,-11.667 -12,-18l5,-9.5c2.333,2 2.5,2 5,5.5c1.162,1.627 3.5,24.5 2,22z"/>
  <path id="svg_45" fill="black" d="m626.478,324.5l-3,15c0.5,5.5 3.5,19 8.5,28.5c-6,-19 -4,-33.167 -5.5,-43.5z" opacity="0.2"/>
  <g stroke="null" id="svg_30" clip-path="url(#clip1_0_1548)">
   <path stroke="null" id="svg_31" fill="white" d="m387,100.012l-1,0l0,-1.4999c0,-2.0701 -2.24,-3.7502 -5,-3.7502c-2.76,0 -5,1.6801 -5,3.7502l0,1.4999l-1,0c-1.1,0 -2,0.675 -2,1.5l0,7.501c0,0.825 0.9,1.5 2,1.5l12,0c1.1,0 2,-0.675 2,-1.5l0,-7.501c0,-0.825 -0.9,-1.5 -2,-1.5zm-6,6.751c-1.1,0 -2,-0.675 -2,-1.5c0,-0.826 0.9,-1.501 2,-1.501c1.1,0 2,0.675 2,1.501c0,0.825 -0.9,1.5 -2,1.5zm3.1,-6.751l-6.2,0l0,-1.4999c0,-1.2826 1.39,-2.3251 3.1,-2.3251c1.71,0 3.1,1.0425 3.1,2.3251l0,1.4999z"/>
  </g>
 </g>
</svg>