<svg width="688" height="624" xmlns="http://www.w3.org/2000/svg">
 <mask height="490" width="648" y="64" x="20" maskUnits="userSpaceOnUse" id="mask0_0_1548">
  <path id="svg_1" fill="#98C3E8" d="m606.962,76.9443c-140.572,-62.0753 -196.92,120.5347 -291.821,153.0797c-94.447,46.315 -188.023,-1.94 -243.7769,43.392c-88.3766,71.856 -45.5033,191.801 13.6421,241.07c84.8178,70.653 231.3358,40.058 381.3838,-43.393c187.99,-104.554 263.83,-339.719 140.572,-394.1487z"/>
 </mask>
 <defs>
  <filter color-interpolation-filters="sRGB" filterUnits="userSpaceOnUse" height="188" width="188" y="84" x="403" id="filter0_d_0_1548">
   <feGaussianBlur stdDeviation="25"/>
  </filter>
  <filter color-interpolation-filters="sRGB" filterUnits="userSpaceOnUse" height="60.6441" width="71.1387" y="0.756439" x="396.139" id="filter1_d_0_1548">
   <feGaussianBlur stdDeviation="7.5"/>
  </filter>
  <filter color-interpolation-filters="sRGB" filterUnits="userSpaceOnUse" height="60.6441" width="71.1387" y="78.0114" x="570" id="filter2_d_0_1548">
   <feGaussianBlur stdDeviation="7.5"/>
  </filter>
  <filter color-interpolation-filters="sRGB" filterUnits="userSpaceOnUse" height="60.6441" width="71.1387" y="0.756439" x="524" id="filter4_d_0_1548">
   <feGaussianBlur stdDeviation="7.5"/>
  </filter>
  <clipPath id="clip0_0_1548">
   <rect id="svg_2" x="415" y="16.7568" fill="white" height="18.0012" width="24"/>
  </clipPath>
  <clipPath id="clip1_0_1548">
   <rect id="svg_3" x="369" y="94.011803" fill="white" height="18.0012" width="24"/>
  </clipPath>
  <clipPath id="clip2_0_1548">
   <rect id="svg_4" x="296" y="295" fill="white" height="48" width="48"/>
  </clipPath>
 </defs>
 <g>
  <title>background</title>
  <rect fill="none" id="canvas_background" height="402" width="582" y="-1" x="-1"/>
 </g>
 <g>
  <title>Layer 1</title>
  <path id="svg_5" fill="#98C3E8" d="m624.607,75.4102c-144.775,-68.89271 -208.638,119.4988 -308.469,150.4958c-99.744,45.347 -195.923,-7.73 -255.3097,37.768c-94.1347,72.12 -52.81791,198.289 7.4454,251.376c86.4203,76.13 239.9983,48.73 398.7383,-33.588c198.882,-103.133 284.538,-345.645 157.595,-406.0518z" opacity="0.4"/>
  <path id="svg_9" fill="#98C3E8" d="m515.573,513.55c-8.095,-19.03 17.706,-61.315 53,-71c30.369,-8.334 79.409,8.71 87.499,28.5c7.157,17.505 -39.719,14.61 -65.998,24.343c-26.279,9.733 -66.407,37.186 -74.501,18.157z" opacity="0.2"/>
  <g id="svg_18" filter="url(#filter0_d_0_1548)">
   <rect id="svg_19" fill="white" rx="10" height="88" width="88" y="140" x="589"/>
  </g>
  <g id="svg_21" filter="url(#filter1_d_0_1548)">
   <path id="svg_22" fill="#56CCF2" d="m440.423,10.7564l-27.431,0c-3.785,0 -6.853,2.2858 -6.853,5.1055l0,20.4332c0,2.8196 3.068,5.1054 6.853,5.1054l27.431,0c3.785,0 6.854,-2.2858 6.854,-5.1054l0,-20.4332c0,-2.8197 -3.069,-5.1055 -6.854,-5.1055z"/>
  </g>
  <g id="svg_23" clip-path="url(#clip0_0_1548)">
   <path id="svg_24" fill="white" d="m437,25.0074l-4.17,0l3.24,-2.4302l-1.41,-1.0651l-4.66,3.4953l-2,0l0,-1.5001l4.66,-3.4953l-1.42,-1.0575l-3.24,2.4301l0,-3.1277l-2,0l0,3.1277l-3.24,-2.4301l-1.42,1.0575l4.66,3.4953l0,1.5001l-2,0l-4.66,-3.4953l-1.41,1.0651l3.24,2.4302l-4.17,0l0,1.5001l4.17,0l-3.24,2.4301l1.41,1.0651l4.66,-3.4952l2,0l0,1.5001l-4.66,3.4952l1.42,1.0576l3.24,-2.4302l0,3.1277l2,0l0,-3.1277l3.24,2.4302l1.42,-1.0576l-4.66,-3.4952l0,-1.5001l2,0l4.66,3.4952l1.41,-1.0651l-3.24,-2.4301l4.17,0l0,-1.5001z"/>
  </g>
  <g id="svg_25" filter="url(#filter2_d_0_1548)">
   <path id="svg_26" fill="#F2C94C" d="m614.284,88.0114l-27.43,0c-3.785,0 -6.854,2.2858 -6.854,5.1054l0,20.4332c0,2.82 3.069,5.106 6.854,5.106l27.43,0c3.786,0 6.854,-2.286 6.854,-5.106l0,-20.4332c0,-2.8196 -3.068,-5.1054 -6.854,-5.1054z"/>
  </g>
  <path id="svg_27" fill="white" d="m610,100.762c0,-3.75 -4,-6.7502 -9,-6.7502c-5,0 -9,3.0002 -9,6.7502c0,2.325 1.6,4.426 4,5.626l0,1.875c0,0.975 0.8,1.8 2,2.1l0,0.15c0,1.275 1.3,2.25 3,2.25c1.7,0 3,-0.975 3,-2.25l0,-0.15c1.2,-0.3 2,-1.125 2,-2.1l0,-1.875c2.4,-1.2 4,-3.301 4,-5.626zm-16,0c0,-2.9249 3.1,-5.2501 7,-5.2501c3.9,0 7,2.3252 7,5.2501c0,2.625 -2.6,4.801 -6,5.176l0,-1.876l1.7,-1.275c0.4,-0.3 0.4,-0.75 0,-1.05c-0.4,-0.3 -1,-0.3 -1.4,0l-1.3,0.975l-1.3,-0.975c-0.4,-0.3 -1,-0.3 -1.4,0c-0.4,0.3 -0.4,0.75 0,1.05l1.7,1.275l0,1.876c-3.4,-0.375 -6,-2.551 -6,-5.176zm7,10.501c-0.6,0 -1,-0.3 -1,-0.75l2,0c0,0.45 -0.4,0.75 -1,0.75zm3,-3c0,0.45 -0.4,0.75 -1,0.75l-4,0c-0.6,0 -1,-0.3 -1,-0.75l0,-1.125c0.9,0.225 1.9,0.375 3,0.375c1.1,0 2.1,-0.15 3,-0.375l0,1.125z"/>
  <g id="svg_32" filter="url(#filter4_d_0_1548)">
   <path id="svg_33" fill="#6FCF97" d="m568.284,10.7564l-27.43,0c-3.785,0 -6.854,2.2858 -6.854,5.1055l0,20.4332c0,2.8196 3.069,5.1054 6.854,5.1054l27.43,0c3.786,0 6.854,-2.2858 6.854,-5.1054l0,-20.4332c0,-2.8197 -3.068,-5.1055 -6.854,-5.1055z"/>
  </g>
  <path id="svg_34" fill="white" d="m560.311,21.9295l-16.332,0l0,7.6556l16.332,0l0,-7.6556z"/>
  <path id="svg_35" fill="white" d="m564.713,23.4529l-3.605,1.1364l0,2.3683l3.605,1.1364l1.307,0l0,-4.6411l-1.307,0z"/>
 </g>
</svg>